<?xml version="1.0" standalone="no"?>
<!DOCTYPE svg PUBLIC "-//W3C//DTD SVG 20010904//EN"
 "http://www.w3.org/TR/2001/REC-SVG-20010904/DTD/svg10.dtd">
<svg version="1.0" xmlns="http://www.w3.org/2000/svg"
 width="260.000000pt" height="260.000000pt" viewBox="0 0 260.000000 260.000000"
 preserveAspectRatio="xMidYMid meet">
<metadata>
Created by potrace 1.11, written by Peter Selinger 2001-2013
</metadata>
<g transform="translate(0.000000,260.000000) scale(0.100000,-0.100000)"
fill="#000000" stroke="none">
<path d="M333 2040 l-23 -9 0 -592 0 -592 518 6 c284 4 734 7 1000 7 l482 0 0
579 c0 512 -2 580 -16 591 -12 11 -209 14 -977 17 -611 2 -970 0 -984 -7z
m1907 -590 l0 -520 -930 0 -930 0 0 520 0 520 930 0 930 0 0 -520z"/>
<path d="M1178 793 c5 -23 7 -25 10 -8 2 11 9 23 16 27 6 5 3 8 -10 8 -18 0
-20 -4 -16 -27z"/>
<path d="M1250 798 c0 -21 5 -28 20 -28 11 0 20 7 20 16 0 8 -4 13 -9 9 -6 -3
-14 3 -20 12 -9 16 -10 14 -11 -9z"/>
<path d="M1322 795 c0 -16 2 -22 5 -12 2 9 2 23 0 30 -3 6 -5 -1 -5 -18z"/>
<path d="M1410 820 c-10 -35 -5 -47 22 -48 17 0 28 4 28 13 0 19 -17 28 -26
14 -4 -8 -3 -9 4 -5 7 4 12 2 12 -3 0 -20 -20 -11 -30 12 -5 12 -9 20 -10 17z"/>
<path d="M1216 803 c-11 -12 -6 -30 9 -30 8 0 15 6 15 13 0 15 -15 26 -24 17z"/>
<path d="M1364 795 c-4 -9 -4 -19 0 -22 3 -4 6 2 7 13 0 18 1 18 9 -1 7 -16 9
-17 9 -3 1 23 -18 33 -25 13z"/>
</g>
</svg>
